<svg id="SvgjsSvg1001" width="288" height="288" xmlns="http://www.w3.org/2000/svg" version="1.1" xmlns:xlink="http://www.w3.org/1999/xlink" xmlns:svgjs="http://svgjs.com/svgjs"><defs id="SvgjsDefs1002"></defs><g id="SvgjsG1008"><svg xmlns="http://www.w3.org/2000/svg" viewBox="0 0 96 96" width="288" height="288"><switch fill="#ffffff" class="svgShape color000000-0 selectable"><g><path d="M90.829 85.172 68.128 62.471A35.846 35.846 0 0 0 76 40C76 20.118 59.883 4 40 4 20.118 4 4 20.118 4 40s16.118 36 36 36c8.5 0 16.312-2.946 22.471-7.873l22.701 22.701A3.988 3.988 0 0 0 88 92a4 4 0 0 0 2.829-6.828zM40 68c-15.464 0-28-12.536-28-28s12.536-28 28-28c15.465 0 28 12.536 28 28S55.465 68 40 68z" fill="#ffffff" class="svgShape color000000-2"></path></g></switch></svg></g></svg>